<?xml version="1.0" encoding="utf-8"?>
<!-- Generator: Adobe Illustrator 23.0.1, SVG Export Plug-In . SVG Version: 6.00 Build 0)  -->
<svg version="1.1" id="Слой_1" xmlns="http://www.w3.org/2000/svg" xmlns:xlink="http://www.w3.org/1999/xlink" x="0px" y="0px"
	 viewBox="0 0 1920 1080" style="enable-background:new 0 0 1920 1080;" xml:space="preserve">
<style type="text/css">
	.st0{fill:#182952;stroke:#7045AF;stroke-width:20;stroke-miterlimit:10;}
	.st1{fill:#C8C8C8;stroke:#000000;stroke-width:0.5;stroke-miterlimit:10;}
	.st2{fill:#969696;}
	.st3{fill:#E14594;stroke:#D40005;stroke-width:6;stroke-miterlimit:10;}
	.st4{fill:#B71D5F;}
	.st5{fill:#A00A4B;}
	.st6{fill:#646464;}
	.st7{fill:none;stroke:#7045AF;stroke-miterlimit:10;}
	.st8{fill:#FFFFFF;}
</style>
<circle class="st0" cx="959.5" cy="450.5" r="368.5"/>
<g>
	<circle class="st1" cx="959.5" cy="450.5" r="210"/>
	<path class="st2" d="M794.5,487.5c0-115.98,94.02-210,210-210c40.12,0,77.61,11.26,109.49,30.78
		c-38.38-41.67-93.38-67.78-154.49-67.78c-115.98,0-210,94.02-210,210c0,75.86,40.23,142.32,100.51,179.22
		C815.55,592.31,794.5,542.37,794.5,487.5z"/>
</g>
<g>
	<path class="st3" d="M1275.74,102.55c-27-64.72-107.89-92.58-180.66-62.22c-58.23,24.3-93.62,78.51-91.6,132.37
		c-0.01,1.9-0.01,3.8-0.02,5.7c6.07,65,12.13,130.01,18.2,195.01c61.69-34.96,123.37-69.92,185.06-104.88
		c0.67-0.49,1.35-0.98,2.02-1.48C1270.88,232.77,1300.7,162.38,1275.74,102.55z"/>
	
		<ellipse transform="matrix(0.9229 -0.385 0.385 0.9229 30.2338 450.8221)" class="st4" cx="1140.8" cy="149.92" rx="82.13" ry="73.04"/>
	<path class="st5" d="M1083.02,191.89c-15.53-37.23,5.81-81.57,47.67-99.03c22.31-9.31,45.94-9.1,65.51-1.24
		c-21.66-17.01-53.76-21.51-83.51-9.1c-41.86,17.46-63.2,61.8-47.67,99.03c7.25,17.39,21.27,30.15,38.41,37.03
		C1094.6,211.65,1087.51,202.66,1083.02,191.89z"/>
</g>
<g>
	<circle class="st2" cx="865.5" cy="531.5" r="30.5"/>
	<path class="st6" d="M842.65,537.11c0-16.84,13.66-30.5,30.5-30.5c5.04,0,9.79,1.22,13.98,3.39c-5.52-5.55-13.17-8.99-21.63-8.99
		c-16.84,0-30.5,13.66-30.5,30.5c0,11.81,6.71,22.04,16.52,27.11C846.04,553.1,842.65,545.5,842.65,537.11z"/>
</g>
<g>
	<ellipse class="st2" cx="1015" cy="584.5" rx="22" ry="22.5"/>
	<path class="st6" d="M998.52,588.64c0-12.43,9.85-22.5,22-22.5c3.63,0,7.06,0.9,10.08,2.5c-3.98-4.1-9.5-6.63-15.6-6.63
		c-12.15,0-22,10.07-22,22.5c0,8.71,4.84,16.26,11.92,20C1000.96,600.43,998.52,594.83,998.52,588.64z"/>
</g>
<g>
	<circle class="st2" cx="1117" cy="395" r="26"/>
	<path class="st6" d="M1097.52,399.78c0-14.36,11.64-26,26-26c4.3,0,8.35,1.04,11.92,2.89c-4.71-4.74-11.23-7.67-18.44-7.67
		c-14.36,0-26,11.64-26,26c0,10.06,5.72,18.79,14.08,23.11C1100.41,413.41,1097.52,406.93,1097.52,399.78z"/>
</g>
<g>
	<circle class="st2" cx="944.5" cy="418.5" r="42.5"/>
	<path class="st6" d="M927.88,446.76c-16.81-16.38-17.17-43.28-0.79-60.1c4.9-5.03,10.74-8.59,16.97-10.66
		c-10.92,0.11-21.79,4.4-30,12.84c-16.38,16.81-16.02,43.72,0.79,60.1c11.78,11.48,28.53,14.74,43.13,9.87
		C947.14,458.93,936.25,454.92,927.88,446.76z"/>
</g>
<g>
	<circle class="st2" cx="1091" cy="488" r="19"/>
	<path class="st6" d="M1076.76,491.49c0-10.49,8.51-19,19-19c3.14,0,6.1,0.76,8.71,2.11c-3.44-3.46-8.21-5.6-13.47-5.6
		c-10.49,0-19,8.51-19,19c0,7.35,4.18,13.73,10.29,16.89C1078.88,501.46,1076.76,496.72,1076.76,491.49z"/>
</g>
<g>
	<g>
		<path class="st7" d="M831.1,147.11"/>
	</g>
</g>
<g>
	<g>
		<path class="st7" d="M793.6,196.61"/>
	</g>
</g>
<g>
	<g>
		<path class="st7" d="M832.6,162.11"/>
	</g>
</g>
<g>
	<g>
		<path class="st7" d="M853.6,144.11"/>
	</g>
</g>
<path class="st8" d="M795.1,218.61c-6.43,0-6.45,10,0,10C801.53,228.61,801.54,218.61,795.1,218.61z"/>
<path class="st8" d="M957.09,155.61c-6.43,0-6.45,10,0,10C963.53,165.61,963.54,155.61,957.09,155.61z"/>
<path class="st8" d="M873.09,215.61c-6.43,0-6.45,10,0,10C879.53,225.61,879.54,215.61,873.09,215.61z"/>
<path class="st8" d="M859.6,149.61c-6.43,0-6.45,10,0,10C866.03,159.61,866.04,149.61,859.6,149.61z"/>
<path class="st8" d="M777.1,206.61c-6.43,0-6.45,10,0,10C783.53,216.61,783.54,206.61,777.1,206.61z"/>
<path class="st8" d="M748.6,269.6c-6.43,0-6.45,10,0,10C755.04,279.6,755.05,269.6,748.6,269.6z"/>
<path class="st8" d="M738.64,320.57c-0.81-0.81-2.11-1.43-3.3-1.46c0.49-2.79-1.08-6.01-4.74-6.01c-6.3,0-6.44,9.58-0.39,9.98
	c-0.07,0.33-0.11,0.67-0.11,1.02v1.5c0,1.28,0.56,2.63,1.46,3.54c0.87,0.87,2.29,1.52,3.54,1.46c1.29-0.06,2.63-0.48,3.54-1.46
	c0.9-0.98,1.46-2.18,1.46-3.54v-1.5C740.1,322.82,739.54,321.47,738.64,320.57z"/>
<path class="st8" d="M661.61,316.1c-6.43,0-6.45,10,0,10C668.04,326.1,668.05,316.1,661.61,316.1z"/>
<path class="st8" d="M672.1,389.6c-6.43,0-6.45,10,0,10C678.54,399.6,678.55,389.6,672.1,389.6z"/>
<path class="st8" d="M702.1,428.6c-6.43,0-6.45,10,0,10C708.54,438.6,708.55,428.6,702.1,428.6z"/>
<path class="st8" d="M661.61,457.09c-6.43,0-6.45,10,0,10C668.04,467.09,668.05,457.09,661.61,457.09z"/>
<path class="st8" d="M678.1,553.09c-6.43,0-6.45,10,0,10C684.54,563.09,684.55,553.09,678.1,553.09z"/>
<path class="st8" d="M702.1,524.59c-6.43,0-6.45,10,0,10C708.54,534.59,708.55,524.59,702.1,524.59z"/>
<path class="st8" d="M718.6,586.09c-2.71,0.12-5,2.2-5,5v4.5c0,2.62,2.3,5.12,5,5c2.71-0.12,5-2.2,5-5v-4.5
	C723.6,588.47,721.3,585.97,718.6,586.09z"/>
<path class="st8" d="M715.92,633.26c-0.39-1.19-1.14-2.41-2.3-2.99c-1-0.5-2-1-3-1.5c-1.21-0.6-2.52-0.87-3.85-0.5
	c-1.16,0.32-2.42,1.22-2.99,2.3c-0.61,1.16-0.92,2.57-0.5,3.85c0.39,1.19,1.14,2.41,2.3,2.99c1,0.5,2,1,3,1.5
	c1.21,0.6,2.52,0.87,3.85,0.5c1.16-0.32,2.42-1.22,2.99-2.3C716.03,635.95,716.34,634.54,715.92,633.26z"/>
<path class="st8" d="M810.1,631.09c-6.43,0-6.45,10,0,10C816.53,641.09,816.54,631.09,810.1,631.09z"/>
<path class="st8" d="M796.6,668.58c-6.43,0-6.45,10,0,10C803.03,678.58,803.04,668.58,796.6,668.58z"/>
<path class="st8" d="M763.6,674.58c-6.43,0-6.45,10,0,10C770.03,684.58,770.05,674.58,763.6,674.58z"/>
<path class="st8" d="M771.1,625.09c-6.43,0-6.45,10,0,10C777.53,635.09,777.55,625.09,771.1,625.09z"/>
<path class="st8" d="M940.59,689.58c-6.43,0-6.45,10,0,10C947.03,699.58,947.04,689.58,940.59,689.58z"/>
<path class="st8" d="M820.6,730.08c-6.43,0-6.45,10,0,10C827.03,740.08,827.04,730.08,820.6,730.08z"/>
<path class="st8" d="M946.59,743.58h-6c-2.62,0-5.12,2.3-5,5c0.12,2.71,2.2,5,5,5h6c2.62,0,5.12-2.3,5-5
	C951.47,745.87,949.39,743.58,946.59,743.58z"/>
<path class="st8" d="M1043.9,720.56c-0.69-1.07-1.71-2.01-2.99-2.3c-1.36-0.31-2.6-0.12-3.85,0.5c-1,0.5-2,1-3,1.5
	c-1.08,0.54-1.99,1.86-2.3,2.99c-0.33,1.2-0.18,2.79,0.5,3.85c0.69,1.07,1.71,2.01,2.99,2.3c1.36,0.31,2.6,0.12,3.85-0.5
	c1-0.5,2-1,3-1.5c1.08-0.54,1.99-1.86,2.3-2.99C1044.74,723.21,1044.59,721.62,1043.9,720.56z"/>
<path class="st8" d="M1096.58,650.58c-6.43,0-6.45,10,0,10C1103.02,660.58,1103.03,650.58,1096.58,650.58z"/>
<path class="st8" d="M1170.08,619.09c-6.43,0-6.45,10,0,10C1176.51,629.09,1176.53,619.09,1170.08,619.09z"/>
<path class="st8" d="M996.09,671.58c-6.43,0-6.45,10,0,10C1002.52,681.58,1002.53,671.58,996.09,671.58z"/>
<path class="st8" d="M1140.08,673.08c-6.43,0-6.45,10,0,10C1146.52,683.08,1146.53,673.08,1140.08,673.08z"/>
<path class="st8" d="M990.62,719.55c-0.98-0.9-2.18-1.46-3.54-1.46h-1.5c-1.28,0-2.63,0.56-3.54,1.46
	c-0.87,0.87-1.52,2.29-1.46,3.54c0.06,1.29,0.48,2.63,1.46,3.54c0.98,0.9,2.18,1.46,3.54,1.46h1.5c1.28,0,2.63-0.56,3.54-1.46
	c0.87-0.87,1.52-2.29,1.46-3.54C992.03,721.79,991.61,720.45,990.62,719.55z"/>
<path class="st8" d="M835.6,689.58c-6.43,0-6.45,10,0,10C842.03,699.58,842.04,689.58,835.6,689.58z"/>
<path class="st8" d="M874.59,680.58c-6.43,0-6.45,10,0,10C881.03,690.58,881.04,680.58,874.59,680.58z"/>
<path class="st8" d="M1174.58,559.09c-6.43,0-6.45,10,0,10C1181.01,569.09,1181.02,559.09,1174.58,559.09z"/>
<path class="st8" d="M1263.08,559.09c-6.43,0-6.45,10,0,10C1269.51,569.09,1269.52,559.09,1263.08,559.09z"/>
<path class="st8" d="M1200.08,509.59c-6.43,0-6.45,10,0,10C1206.51,519.59,1206.52,509.59,1200.08,509.59z"/>
<path class="st8" d="M1291.57,484.09c-6.43,0-6.45,10,0,10C1298.01,494.09,1298.02,484.09,1291.57,484.09z"/>
<path class="st8" d="M1240.58,463.09c-6.43,0-6.45,10,0,10C1247.01,473.09,1247.02,463.09,1240.58,463.09z"/>
<path class="st8" d="M1231.58,517.09c-6.43,0-6.45,10,0,10C1238.01,527.09,1238.02,517.09,1231.58,517.09z"/>
<path class="st8" d="M1221.08,553.09c-6.43,0-6.45,10,0,10C1227.51,563.09,1227.52,553.09,1221.08,553.09z"/>
<path class="st8" d="M1219.58,596.59c-6.43,0-6.45,10,0,10C1226.01,606.59,1226.02,596.59,1219.58,596.59z"/>
<path class="st8" d="M1198.58,431.6c-6.43,0-6.45,10,0,10C1205.01,441.6,1205.02,431.6,1198.58,431.6z"/>
<path class="st8" d="M1287.34,409.79c-0.92-2.44-3.42-4.38-6.15-3.49c-2.38,0.77-4.48,3.53-3.49,6.15c0.18,0.48,0.32,0.97,0.47,1.46
	c0.04,0.19,0.06,0.31,0.08,0.39c0.01,0.19,0.03,0.37,0.03,0.56c0.01,0.26,0,0.51-0.01,0.77c-0.04,0.56-0.05,0.68-0.03,0.35
	c0.03-0.33-0.01-0.22-0.11,0.34c-0.09,0.33-0.19,0.66-0.31,0.98c-0.85,2.48,0.97,5.58,3.49,6.15c2.78,0.63,5.24-0.84,6.15-3.49
	C1288.57,416.72,1288.55,412.99,1287.34,409.79z"/>
<path class="st8" d="M1207.58,367.1c-6.43,0-6.45,10,0,10C1214.01,377.1,1214.02,367.1,1207.58,367.1z"/>
<path class="st8" d="M1275.07,353.6c-6.43,0-6.45,10,0,10C1281.51,363.6,1281.52,353.6,1275.07,353.6z"/>
<path class="st8" d="M1225.58,412.1c-6.43,0-6.45,10,0,10C1232.01,422.1,1232.02,412.1,1225.58,412.1z"/>
<path class="st8" d="M1200.08,322.1c-6.43,0-6.45,10,0,10C1206.51,332.1,1206.52,322.1,1200.08,322.1z"/>
<path class="st8" d="M1156.58,326.6c-6.43,0-6.45,10,0,10C1163.02,336.6,1163.03,326.6,1156.58,326.6z"/>
<path class="st8" d="M1237.58,328.1c-6.43,0-6.45,10,0,10C1244.01,338.1,1244.02,328.1,1237.58,328.1z"/>
<path class="st8" d="M1218.08,308.6c-6.43,0-6.45,10,0,10C1224.51,318.6,1224.52,308.6,1218.08,308.6z"/>
<path class="st8" d="M1239.08,277.1c-6.43,0-6.45,10,0,10C1245.51,287.1,1245.52,277.1,1239.08,277.1z"/>
<path class="st8" d="M1272.61,287.57c-0.87-0.87-2.29-1.52-3.54-1.46c-1.29,0.06-2.63,0.48-3.54,1.46c-0.9,0.98-1.46,2.18-1.46,3.54
	v1.5c0,1.28,0.56,2.63,1.46,3.54c0.87,0.87,2.29,1.52,3.54,1.46c1.29-0.06,2.63-0.48,3.54-1.46c0.9-0.98,1.46-2.18,1.46-3.54v-1.5
	C1274.07,289.82,1273.52,288.47,1272.61,287.57z"/>
<path class="st8" d="M1264.58,311.6c-6.43,0-6.45,10,0,10C1271.01,321.6,1271.02,311.6,1264.58,311.6z"/>
<path class="st8" d="M958.59,205.11c-6.43,0-6.45,10,0,10C965.03,215.11,965.04,205.11,958.59,205.11z"/>
<path class="st8" d="M896.13,187.07c-0.87-0.87-2.29-1.52-3.54-1.46c-1.29,0.06-2.63,0.48-3.54,1.46c-0.9,0.98-1.46,2.18-1.46,3.54
	v1.5c0,1.28,0.56,2.63,1.46,3.54c0.87,0.87,2.29,1.52,3.54,1.46c1.29-0.06,2.63-0.48,3.54-1.46c0.9-0.98,1.46-2.18,1.46-3.54v-1.5
	C897.59,189.33,897.04,187.98,896.13,187.07z"/>
<path class="st8" d="M921.09,125.61c-6.43,0-6.45,10,0,10C927.53,135.61,927.54,125.61,921.09,125.61z"/>
<path class="st8" d="M960.09,110.61c-6.43,0-6.45,10,0,10C966.52,120.61,966.54,110.61,960.09,110.61z"/>
<path class="st8" d="M810.1,154.11c-6.43,0-6.45,10,0,10C816.53,164.11,816.54,154.11,810.1,154.11z"/>
<path class="st8" d="M857.13,193.07c-0.87-0.87-2.29-1.52-3.54-1.46c-1.29,0.06-2.63,0.48-3.54,1.46c-0.9,0.98-1.46,2.18-1.46,3.54
	v1.5c0,1.28,0.56,2.63,1.46,3.54c0.87,0.87,2.29,1.52,3.54,1.46c1.29-0.06,2.63-0.48,3.54-1.46c0.9-0.98,1.46-2.18,1.46-3.54v-1.5
	C858.6,195.33,858.04,193.98,857.13,193.07z"/>
<path class="st8" d="M825.1,256.1c-6.43,0-6.45,10,0,10C831.53,266.1,831.54,256.1,825.1,256.1z"/>
<path class="st8" d="M741.1,229.11c-6.43,0-6.45,10,0,10C747.54,239.11,747.55,229.11,741.1,229.11z"/>
<path class="st8" d="M679.6,262.1c-6.43,0-6.45,10,0,10C686.04,272.1,686.05,262.1,679.6,262.1z"/>
<path class="st8" d="M675.1,286.1c-6.43,0-6.45,10,0,10C681.54,296.1,681.55,286.1,675.1,286.1z"/>
<path class="st8" d="M715.6,286.1c-6.43,0-6.45,10,0,10C722.04,296.1,722.05,286.1,715.6,286.1z"/>
<path class="st8" d="M715.6,266.6c-6.43,0-6.45,10,0,10C722.04,276.6,722.05,266.6,715.6,266.6z"/>
</svg>
