<?xml version="1.0" encoding="utf-8"?>
<!-- Generator: Adobe Illustrator 22.1.0, SVG Export Plug-In . SVG Version: 6.00 Build 0)  -->
<svg version="1.1" id="Слой_1" xmlns="http://www.w3.org/2000/svg" xmlns:xlink="http://www.w3.org/1999/xlink" x="0px" y="0px"
	 viewBox="0 0 1920 1080" style="enable-background:new 0 0 1920 1080;" xml:space="preserve">
<style type="text/css">
	.st0{fill:#C8C8C8;stroke:#000000;stroke-width:0.5;stroke-miterlimit:10;}
	.st1{fill:#969696;}
	.st2{fill:#646464;}
	.st3{fill:#E14594;stroke:#D40005;stroke-width:6;stroke-miterlimit:10;}
	.st4{fill:#B71D5F;}
	.st5{fill:#A00A4B;}
</style>
<g>
	<circle class="st0" cx="1064.3" cy="482.7" r="282.8"/>
	<path class="st1" d="M842.1,532.6c0-156.2,126.6-282.8,282.8-282.8c54,0,104.5,15.2,147.4,41.4c-51.7-56.1-125.7-91.3-208-91.3
		c-156.2,0-282.8,126.6-282.8,282.8c0,102.1,54.2,191.6,135.3,241.3C870.4,673.7,842.1,606.4,842.1,532.6z"/>
</g>
<g>
	<circle class="st1" cx="937.7" cy="591.8" r="41.1"/>
	<path class="st2" d="M906.9,599.4c0-22.7,18.4-41.1,41.1-41.1c6.8,0,13.2,1.6,18.8,4.6c-7.4-7.5-17.7-12.1-29.1-12.1
		c-22.7,0-41.1,18.4-41.1,41.1c0,15.9,9,29.7,22.2,36.5C911.5,620.9,906.9,610.7,906.9,599.4z"/>
</g>
<g>
	<ellipse class="st1" cx="1139" cy="663.2" rx="29.6" ry="30.3"/>
	<path class="st2" d="M1116.8,668.7c0-16.7,13.3-30.3,29.6-30.3c4.9,0,9.5,1.2,13.6,3.4c-5.4-5.5-12.8-8.9-21-8.9
		c-16.4,0-29.6,13.6-29.6,30.3c0,11.7,6.5,21.9,16,26.9C1120.1,684.6,1116.8,677.1,1116.8,668.7z"/>
</g>
<g>
	<circle class="st1" cx="1276.3" cy="408" r="35"/>
	<path class="st2" d="M1250.1,414.5c0-19.3,15.7-35,35-35c5.8,0,11.2,1.4,16,3.9c-6.3-6.4-15.1-10.3-24.8-10.3
		c-19.3,0-35,15.7-35,35c0,13.5,7.7,25.3,19,31.1C1254,432.8,1250.1,424.1,1250.1,414.5z"/>
</g>
<g>
	<circle class="st1" cx="1044.1" cy="439.7" r="57.2"/>
	<path class="st2" d="M1021.7,477.7c-22.6-22.1-23.1-58.3-1.1-80.9c6.6-6.8,14.5-11.6,22.8-14.4c-14.7,0.1-29.3,5.9-40.4,17.3
		c-22.1,22.6-21.6,58.9,1.1,80.9c15.9,15.5,38.4,19.8,58.1,13.3C1047.6,494.1,1032.9,488.7,1021.7,477.7z"/>
</g>
<g>
	<circle class="st1" cx="1241.3" cy="533.2" r="25.6"/>
	<path class="st2" d="M1222.1,537.9c0-14.1,11.5-25.6,25.6-25.6c4.2,0,8.2,1,11.7,2.8c-4.6-4.7-11.1-7.5-18.1-7.5
		c-14.1,0-25.6,11.5-25.6,25.6c0,9.9,5.6,18.5,13.9,22.7C1225,551.4,1222.1,545,1222.1,537.9z"/>
</g>
<g>
	<path class="st3" d="M1425.6,229.7c-18.4-56-84.4-84.5-147.3-63.8c-50.3,16.6-83.5,59.7-85.3,104.9c-0.1,1.6-0.3,3.2-0.4,4.8
		c0.9,54.8,1.7,109.7,2.6,164.5c53.9-25.3,107.9-50.6,161.8-75.9c0.6-0.4,1.2-0.7,1.8-1.1C1413.1,338.4,1442.6,281.4,1425.6,229.7z"
		/>
	
		<ellipse transform="matrix(0.9498 -0.3127 0.3127 0.9498 -15.8356 422.5771)" class="st4" cx="1309.5" cy="260.7" rx="69" ry="61.4"/>
	<path class="st5" d="M1258.4,292c-10.6-32.2,10.1-67.9,46.3-79.9c19.3-6.4,39.1-4.6,55,3.2c-17-15.6-43.6-21.5-69.4-13
		c-36.2,11.9-56.9,47.7-46.3,79.9c4.9,15,15.9,26.6,29.8,33.5C1266.8,309.3,1261.5,301.3,1258.4,292z"/>
</g>
</svg>
