<?xml version="1.0" encoding="utf-8"?>
<!-- Generator: Adobe Illustrator 22.1.0, SVG Export Plug-In . SVG Version: 6.00 Build 0)  -->
<svg version="1.1" id="Слой_1" xmlns="http://www.w3.org/2000/svg" xmlns:xlink="http://www.w3.org/1999/xlink" x="0px" y="0px"
	 viewBox="0 0 1920 1080" style="enable-background:new 0 0 1920 1080;" xml:space="preserve">
<style type="text/css">
	.st0{fill:#F3B502;}
	.st1{fill:none;}
	.st2{fill:#00AFB4;}
	.st3{fill:#E14594;}
	.st4{fill:#FFFFFF;}
	.st5{fill:#182952;}
</style>
<path class="st0" d="M478.5,586.1c-61.1-15.9-105.3-26.1-138.7-32l-0.3-0.1c-7.1-1.3-21.7-3.9-37.1-13.7
	c-16.3-10.5-29.2-26.2-38.2-46.7c9-20.5,21.9-36.3,38.2-46.7c15.4-9.9,30.1-12.5,37.1-13.7l0.3-0.1c33.5-6,77.6-16.1,138.7-32V586.1
	z"/>
<path class="st1" d="M477,402.9V493v1v90.1c-60.2-15.6-103.8-25.7-137-31.6l-0.3-0.1c-7-1.2-21.5-3.8-36.6-13.5
	c-15.9-10.2-28.5-25.5-37.3-45.5c8.9-20,21.4-35.3,37.3-45.5c15.1-9.7,29.6-12.3,36.6-13.5l0.3-0.1
	C373.2,428.5,416.8,418.5,477,402.9 M480,399c-62.2,16.2-107.2,26.6-140.5,32.5c-7.2,1.3-22.1,3.8-38,14c-21.6,13.8-33,34.1-39,48
	c6,13.9,17.4,34.2,39,48c15.9,10.2,30.8,12.7,38,14c33.3,5.9,78.3,16.3,140.5,32.5c0-31.3,0-62.7,0-94c0-0.3,0-0.7,0-1
	C480,461.7,480,430.3,480,399L480,399z"/>
<path class="st2" d="M522.5,666.5c-5.5,0-10-4.5-10-10v-25.7L469,601.7l-1-221.2l44.5-17.1v-21.9c0-5.5,4.5-10,10-10h25
	c5.5,0,10,4.5,10,10v315c0,5.5-4.5,10-10,10H522.5z"/>
<path class="st1" d="M547.5,333c4.7,0,8.5,3.8,8.5,8.5v315c0,4.7-3.8,8.5-8.5,8.5h-25c-4.7,0-8.5-3.8-8.5-8.5v-24.9V630l-1.3-0.9
	l-29-19.4l-13.2-8.8l-1-219.3l20.3-7.8l22.2-8.6l1.9-0.7v-2.1v-20.9c0-4.7,3.8-8.5,8.5-8.5H547.5 M547.5,330h-25
	c-6.3,0-11.5,5.2-11.5,11.5v20.9c-14.8,5.7-29.7,11.4-44.5,17.1c0.3,74.3,0.7,148.7,1,223c14.5,9.7,29,19.4,43.5,29.1v24.9
	c0,6.3,5.2,11.5,11.5,11.5h25c6.3,0,11.5-5.2,11.5-11.5v-315C559,335.2,553.8,330,547.5,330L547.5,330z"/>
<path class="st3" d="M741.1,329.5L678.6,265H443c-5.8,0-10.5-4.7-10.5-10.5v-10c0-5.8,4.7-10.5,10.5-10.5h234.9l56.8,6.4l73.6,89.1
	H741.1z"/>
<path class="st1" d="M685.8,242l56.1,6.3l71.2,86.2h-19.6h-43.7l-61.6-63.6l-0.9-0.9H686H451c-5,0-9-4-9-9v-10c0-5,4-9,9-9H685.8
	 M686,239H451c-6.6,0-12,5.4-12,12v10c0,6.6,5.4,12,12,12h235c20.8,21.5,41.7,43,62.5,64.5c15,0,30,0,45,0c8.7,0,17.3,0,26,0
	c-25.3-30.7-50.7-61.3-76-92C724.3,243.3,705.2,241.2,686,239L686,239z"/>
<path class="st3" d="M447.8,754.5c-5.8,0-10.5-4.7-10.5-10.5v-10c0-5.8,4.7-10.5,10.5-10.5h235.6L746,659h67.2l-73.6,89.1l-56.8,6.4
	H447.8z"/>
<path class="st1" d="M813.1,659l-33.9,41.1L742,745.2l-56.1,6.3H451c-5,0-9-4-9-9v-10c0-5,4-9,9-9h235h1.3l0.9-0.9l61.6-63.6h43.7
	H813.1 M819.5,656c-8.7,0-17.3,0-26,0c-15,0-30,0-45,0c-20.8,21.5-41.7,43-62.5,64.5H451c-6.6,0-12,5.4-12,12v10c0,6.6,5.4,12,12,12
	h235c19.2-2.2,38.3-4.3,57.5-6.5C768.8,717.3,794.2,686.7,819.5,656L819.5,656z"/>
<path class="st4" d="M838.4,725.4c-133,0-244.1-32.5-314.2-59.9v-336c69.5-26.8,179.7-58.5,311.3-58.5c103,0,201.6,19.8,292.8,58.8
	c90.2,38.6,171.7,95,242.2,167.6c-69.1,72.4-149.2,128.8-237.9,167.6C1041.3,705.1,942.2,725.4,838.4,725.4
	C838.4,725.4,838.4,725.4,838.4,725.4z"/>
<path class="st1" d="M846.8,271l0,3c102.8,0,201.1,19.8,292.2,58.7c89.6,38.3,170.6,94.2,240.7,166.3
	c-68.8,71.8-148.3,127.7-236.4,166.2c-91.3,39.9-190.1,60.1-293.7,60.1c-65.4,0-132.2-8-198.5-23.9c-39.3-9.4-77.7-21.3-114.2-35.6
	V332.1c36.5-14,74.8-25.8,113.9-34.9c65.4-15.3,131.3-23.1,195.9-23.1L846.8,271 M846.8,271c-150.6,0-269.4,42.2-312.8,59v338
	c42.4,16.7,163,60.4,315.7,60.4c90.2,0,191.7-15.3,294.9-60.4c110.4-48.2,188.6-115.7,238.9-168.5c0.2,0.2,0.3,0.5,0.5,0.7v-2.4
	c-0.2,0.2-0.3,0.5-0.5,0.7c-51.1-52.7-130.9-120.5-243.2-168.5C1037.3,286,936.4,271,846.8,271L846.8,271z"/>
<path class="st3" d="M451,509.5c-5.8,0-10.5-4.7-10.5-10.5v-10c0-5.8,4.7-10.5,10.5-10.5h296c5.8,0,10.5,4.7,10.5,10.5v10
	c0,5.8-4.7,10.5-10.5,10.5H451z"/>
<path class="st1" d="M747,480c5,0,9,4,9,9v10c0,5-4,9-9,9H451c-5,0-9-4-9-9v-10c0-5,4-9,9-9H747 M747,477H451c-6.6,0-12,5.4-12,12
	v10c0,6.6,5.4,12,12,12h296c6.6,0,12-5.4,12-12v-10C759,482.4,753.6,477,747,477L747,477z"/>
<circle class="st5" cx="1126.5" cy="493.5" r="81"/>
<path d="M1126.5,414c43.8,0,79.5,35.7,79.5,79.5s-35.7,79.5-79.5,79.5s-79.5-35.7-79.5-79.5S1082.7,414,1126.5,414 M1126.5,411
	c-45.6,0-82.5,36.9-82.5,82.5s36.9,82.5,82.5,82.5s82.5-36.9,82.5-82.5S1172.1,411,1126.5,411L1126.5,411z"/>
</svg>
